<svg id="Layer_1" height="512" viewBox="0 0 64 64" width="512" xmlns="http://www.w3.org/2000/svg" data-name="Layer 1"><path d="m36.0256 57.99393a7.975 7.975 0 0 0 5.6544-2.34886l17.9822-18.0178a7.99915 7.99915 0 0 0 -.0112-11.31348l-18.0178-17.98217a7.99984 7.99984 0 1 0 -11.30228 11.32466l12.35548 12.331-12.331 12.35547a8 8 0 0 0 5.6702 13.65118z" fill="#81d4fa"/><path d="m10.0078 40.01979 33-.03266a8 8 0 1 0 -.01584-16l-33 .03266a8 8 0 1 0 .01583 16z" fill="#81d4fa"/><g opacity=".1"><path d="m58.08 24.93-17.4-17.4a8.00333 8.00333 0 0 0 -10.93 1.45 5.94134 5.94134 0 0 1 7.5.78l18 18a6.01749 6.01749 0 0 1 0 8.48l-18 18a6.037 6.037 0 0 1 -7.37.88 7.992 7.992 0 0 0 10.74 1.41l17.46-17.46a10.0435 10.0435 0 0 0 0-14.14z"/></g><path d="m36.00967 59.99768a9.93268 9.93268 0 0 0 7.0708-2.9292l18-18a10.04635 10.04635 0 0 0 0-14.14209l-18-17.99951a10 10 0 0 0 -17.0708 7.0708 10.52566 10.52566 0 0 0 3.85791 8h-19.85791a10 10 0 0 0 0 20h19.85791c-4.5807 3.65217-5.243 10.9499-.92871 15.07129a9.93424 9.93424 0 0 0 7.0708 2.92871zm0-51.99707a5.98253 5.98253 0 0 1 4.24268 1.75439l18 18a6.02788 6.02788 0 0 1 0 8.48487l-18 18.00049a5.99988 5.99988 0 0 1 -8.48535-8.48487l4.34327-4.34375a2.013 2.013 0 0 0 -1.41407-3.41406h-24.68653a6 6 0 0 1 0-12h24.68652a2.013 2.013 0 0 0 1.41407-3.41406c-1.91062-2.17381-6.42981-5.25086-6.10059-8.58594a6.0419 6.0419 0 0 1 6-5.99707z" fill="#4d4d4d"/></svg>