<svg id="Layer_1" height="512" viewBox="0 0 64 64" width="512" xmlns="http://www.w3.org/2000/svg" data-name="Layer 1"><path d="m28.02577 58.07507a7.975 7.975 0 0 1 -5.65906-2.33766l-18.0178-17.98218a7.99914 7.99914 0 0 1 -.0112-11.31347l17.98218-18.01776a7.99984 7.99984 0 0 1 11.32467 11.30223l-12.33104 12.35547 12.35548 12.33104a8 8 0 0 1 -5.64322 13.66233z" fill="#ffcc80"/><path d="m54.00794 40.04948-33 .03265a8 8 0 1 1 -.01584-16l33-.03266a8 8 0 0 1 .01583 16z" fill="#ffcc80"/><path d="m53.99 24.05-24.68.02c10.97711-8.29283 4.26538-24.70427-7.47-15.17a5.92868 5.92868 0 0 1 3.15-.9 6.037 6.037 0 0 1 6 6c.33 3.33-4.19 6.41-6.1 8.58a2.01846 2.01846 0 0 0 1.41 3.42h24.69a6 6 0 1 1 0 12h-24.69a2.01136 2.01136 0 0 0 -1.41 3.41l4.34 4.35a5.9988 5.9988 0 0 1 -7.69 9.15c11.89625 10.568 18.76822-7.24613 7.78-14.84l24.69-.02c7.36037.30464 12.99-15.05-.02-16z" opacity=".1"/><path d="m27.99033 59.99768a9.93268 9.93268 0 0 1 -7.0708-2.9292l-18-18a10.04635 10.04635 0 0 1 0-14.14209l18-17.99951a10 10 0 0 1 17.0708 7.0708 10.52566 10.52566 0 0 1 -3.85791 8h19.85791a10 10 0 0 1 0 20h-19.85791c4.5807 3.65217 5.243 10.9499.92871 15.07129a9.93424 9.93424 0 0 1 -7.0708 2.92871zm0-51.99707a5.98253 5.98253 0 0 0 -4.24268 1.75439l-18 18a6.02788 6.02788 0 0 0 0 8.48487l18 18.00049a5.99988 5.99988 0 0 0 8.48535-8.48487l-4.34327-4.34375a2.013 2.013 0 0 1 1.41407-3.41406h24.68653a6 6 0 0 0 0-12h-24.68652a2.013 2.013 0 0 1 -1.41407-3.41406c1.91062-2.17381 6.42981-5.25086 6.10059-8.58594a6.0419 6.0419 0 0 0 -6-5.99707z" fill="#4d4d4d"/></svg>