<svg id="Capa_1" enable-background="new 0 0 512 512" height="512" viewBox="0 0 512 512" width="512" xmlns="http://www.w3.org/2000/svg"><g><g><path d="m390 210h-150v-150h150z" fill="#666680"/></g><path d="m315 60h75v150h-75z" fill="#474759"/><g><path d="m440.001 389.386h29.997v131.226h-29.997z" fill="#474759" transform="matrix(.707 -.707 .707 .707 -188.467 454.999)"/></g><g id="Barcode_1_"><g><path d="m30 90h-30v-90h90v30h-60z" fill="#666680"/></g><g><path d="m450 90h-30v-60h-60v-30h90z" fill="#474759"/></g><g><path d="m90 450h-90v-90h30v60h60z" fill="#666680"/></g><g><g><g><g><path d="m345 450c-57.891 0-105-47.109-105-105s47.109-105 105-105 105 47.109 105 105-47.109 105-105 105z" fill="#6cf"/></g></g></g></g><g><path d="m300 120h30v30h-30z" fill="#fff5f5"/></g><g><path d="m150 120h30v30h-30z" fill="#474759"/><path d="m90 120v-30h30v-30h-60v90h30 30v-30z" fill="#666680"/><path d="m120 180h-60v30h90v-30-30h-30z" fill="#666680"/><path d="m180 150h30v60h-30z" fill="#474759"/><path d="m120 90h30v30h-30z" fill="#666680"/><path d="m150 60v30h30v30h30v-60z" fill="#474759"/></g></g><path d="m315 120h15v30h-15z" fill="#efe2dd"/><g><path d="m210 390h-150v-150h150z" fill="#666680"/></g><path d="m135 240h75v150h-75z" fill="#474759"/><g><path d="m120 300h30v30h-30z" fill="#fff5f5"/></g><path d="m135 300h15v30h-15z" fill="#efe2dd"/><path d="m135 210h15v-30-30h-15z" fill="#474759"/><path d="m135 90h15v30h-15z" fill="#474759"/><path d="m450 345c0-57.891-47.109-105-105-105v210c57.891 0 105-47.109 105-105z" fill="#5c80e6"/></g></svg>