<svg height="512" viewBox="0 0 64 64" width="512" xmlns="http://www.w3.org/2000/svg"><g id="Close"><path d="m50 8h-36a6.00475 6.00475 0 0 0 -6 6v36a6.00475 6.00475 0 0 0 6 6h36a6.00475 6.00475 0 0 0 6-6v-36a6.00475 6.00475 0 0 0 -6-6zm-6.59 32.59a1.99406 1.99406 0 1 1 -2.82 2.82l-8.59-8.58-8.59 8.58a1.994 1.994 0 0 1 -2.82-2.82l8.58-8.59-8.58-8.59a1.994 1.994 0 0 1 2.82-2.82l8.59 8.58 8.59-8.58a1.994 1.994 0 0 1 2.82 2.82l-8.58 8.59z" fill="#ff5454"/><path d="m43.41 40.59a1.99406 1.99406 0 1 1 -2.82 2.82l-8.59-8.58-8.59 8.58a1.994 1.994 0 0 1 -2.82-2.82l8.58-8.59-8.58-8.59a1.994 1.994 0 0 1 2.82-2.82l8.59 8.58 8.59-8.58a1.994 1.994 0 0 1 2.82 2.82l-8.58 8.59z" fill="#fff"/></g></svg>