<svg id="Capa_1" enable-background="new 0 0 512 512" height="512" viewBox="0 0 512 512" width="512" xmlns="http://www.w3.org/2000/svg">
  <g>
    <g>
      <path d="m438.443 501.98h-364.886c-35.091 0-63.537-28.447-63.537-63.537v-364.886c0-35.091 28.447-63.537 63.537-63.537h364.887c35.091 0 63.537 28.447 63.537 63.537v364.887c-.001 35.09-28.447 63.536-63.538 63.536z" fill="#fff2a0"/>
      <path d="m368.991 72.452h-225.982c-16.602 0-30.059 13.456-30.059 30.059v306.979c0 16.603 13.456 30.059 30.059 30.059h172.353l83.687-83.687v-253.352c0-16.602-13.456-30.058-30.058-30.058z" fill="#7cb518"/>
      <path d="m399.049 355.862h-53.628c-16.601 0-30.059 13.458-30.059 30.059v53.628z" fill="#fff2a0"/>
    </g>
    <g>
      <circle cx="342.502" cy="306.098" r="10"/>
      <path d="m438.319 0h-364.638c-40.628 0-73.681 33.053-73.681 73.681v364.638c0 40.628 33.053 73.681 73.681 73.681h364.638c40.628 0 73.681-33.053 73.681-73.681v-364.638c0-40.628-33.053-73.681-73.681-73.681zm53.642 438.319c0 29.578-24.064 53.642-53.642 53.642h-364.638c-29.578 0-53.642-24.064-53.642-53.642v-364.638c0-29.578 24.064-53.642 53.642-53.642h364.638c29.578 0 53.642 24.064 53.642 53.642z"/>
      <path d="m368.991 62.432h-225.982c-22.099 0-40.078 17.979-40.078 40.078v306.98c0 22.099 17.979 40.078 40.078 40.078h172.353c2.63 0 5.226-1.075 7.085-2.934l83.687-83.687c1.847-1.881 2.934-4.442 2.934-7.085v-253.352c.001-22.099-17.978-40.078-40.077-40.078zm-246.021 347.058v-306.98c0-11.05 8.99-20.039 20.039-20.039h225.981c11.049 0 20.039 8.989 20.039 20.039v243.333h-43.609c-22.099 0-40.078 17.979-40.078 40.078v43.609h-162.333c-11.049-.001-20.039-8.99-20.039-20.04zm202.412 5.869v-29.438c0-11.05 8.99-20.039 20.039-20.039h29.439z"/>
      <path d="m169.498 166.826h173.005c5.534 0 10.02-4.486 10.02-10.02s-4.486-10.02-10.02-10.02h-173.005c-5.534 0-10.02 4.486-10.02 10.02s4.486 10.02 10.02 10.02z"/>
      <path d="m169.498 216.59h173.005c5.534 0 10.02-4.486 10.02-10.02s-4.486-10.02-10.02-10.02h-173.005c-5.534 0-10.02 4.486-10.02 10.02s4.486 10.02 10.02 10.02z"/>
      <path d="m169.498 266.353h173.005c5.534 0 10.02-4.486 10.02-10.02s-4.486-10.02-10.02-10.02h-173.005c-5.534 0-10.02 4.486-10.02 10.02s4.486 10.02 10.02 10.02z"/>
      <path d="m306.932 306.098c0-5.533-4.486-10.02-10.02-10.02h-127.414c-5.534 0-10.02 4.486-10.02 10.02s4.486 10.02 10.02 10.02h127.415c5.533-.001 10.019-4.487 10.019-10.02z"/>
    </g>
  </g>
</svg>
