<svg id="Capa_1" enable-background="new 0 0 512 512" height="512" viewBox="0 0 512 512" width="512" xmlns="http://www.w3.org/2000/svg"><g><g><path d="m438.443 502h-364.886c-35.091 0-63.537-28.447-63.537-63.537v-364.926c0-35.09 28.446-63.537 63.537-63.537h364.887c35.091 0 63.537 28.447 63.537 63.537v364.926c-.001 35.09-28.447 63.537-63.538 63.537z" fill="#ccf5fc"/><path d="m131.461 231.77v160.859c0 21.75 17.632 39.382 39.382 39.382h170.314c21.75 0 39.382-17.632 39.382-39.382v-160.859l-124.539-85.32z" fill="#faf7f5"/><path d="m415.987 179.317-159.987-99.327-159.987 99.327c-8.295 5.15-13.341 14.221-13.341 23.985 0 22.136 24.316 35.661 43.123 23.985l130.205-80.837 130.205 80.837c18.807 11.676 43.123-1.849 43.123-23.985 0-9.764-5.045-18.835-13.341-23.985z" fill="#e38eba"/><path d="m291.624 432.01h-71.249v-95.183c0-16.251 13.174-29.425 29.425-29.425h12.399c16.251 0 29.425 13.174 29.425 29.425z" fill="#fff7bf"/></g><g><path d="m167.781 442.03h176.438c25.552 0 46.34-20.788 46.34-46.34v-155.575c3.441 1.005 6.973 1.515 10.512 1.515 6.362 0 12.74-1.629 18.618-4.899 12.31-6.846 19.659-19.343 19.659-33.429 0-13.322-6.757-25.471-18.075-32.498l-159.988-99.327c-3.236-2.01-7.332-2.01-10.569 0l-159.988 99.328c-11.318 7.026-18.075 19.175-18.075 32.498 0 14.086 7.349 26.582 19.659 33.429 9.148 5.089 19.502 6.195 29.13 3.381v155.577c-.001 25.552 20.787 46.34 46.339 46.34zm62.614-20.039v-78.964c0-14.118 11.486-25.605 25.605-25.605 14.118 0 25.605 11.486 25.605 25.605v78.964zm113.824 0h-42.575v-78.964c0-25.168-20.476-45.644-45.644-45.644s-45.644 20.476-45.644 45.644v78.964h-42.575c-14.502 0-26.301-11.798-26.301-26.301v-166.347l114.52-71.099 114.52 71.1v166.346c0 14.502-11.799 26.301-26.301 26.301zm-242.168-202.772c-5.861-3.26-9.36-9.21-9.36-15.916 0-6.343 3.217-12.127 8.606-15.473l154.703-96.047 154.703 96.046c5.388 3.346 8.606 9.13 8.606 15.473 0 6.706-3.499 12.657-9.36 15.916s-12.761 3.093-18.459-.443l-130.204-80.838c-3.236-2.009-7.333-2.01-10.569 0l-130.207 80.838c-5.698 3.537-12.598 3.703-18.459.444z"/><path d="m438.319 0h-137.406c-5.533 0-10.02 4.6-10.02 10.275s4.486 10.275 10.02 10.275h137.406c29.578 0 53.642 24.677 53.642 55.009v360.881c0 30.332-24.064 55.009-53.642 55.009h-364.638c-29.578 0-53.642-24.677-53.642-55.009v-360.881c0-30.332 24.064-55.009 53.642-55.009h137.406c5.534 0 10.02-4.6 10.02-10.275s-4.487-10.275-10.02-10.275h-137.406c-40.628 0-73.681 33.896-73.681 75.559v360.881c0 41.664 33.053 75.56 73.681 75.56h364.638c40.628 0 73.681-33.896 73.681-75.559v-360.882c0-41.663-33.053-75.559-73.681-75.559z"/><circle cx="256" cy="10" r="10"/></g></g></svg>