<!DOCTYPE svg PUBLIC "-//W3C//DTD SVG 1.1//EN" "http://www.w3.org/Graphics/SVG/1.1/DTD/svg11.dtd">

<!-- Uploaded to: SVG Repo, www.svgrepo.com, Transformed by: SVG Repo Mixer Tools -->
<svg height="128px" width="128px" version="1.1" id="Layer_1" xmlns="http://www.w3.org/2000/svg" xmlns:xlink="http://www.w3.org/1999/xlink" viewBox="0 0 368 368" xml:space="preserve" fill="#000000">

<g id="SVGRepo_bgCarrier" stroke-width="0"/>

<g id="SVGRepo_tracerCarrier" stroke-linecap="round" stroke-linejoin="round"/>

<g id="SVGRepo_iconCarrier"> <circle style="fill:#9CE0FF;" cx="184" cy="184" r="176"/> <path style="fill:#89DAF7;" d="M238.4,25.2c44.4,30,73.6,81.2,73.6,138.8c0,92.8-75.2,168-168,168c-19.2,0-37.2-3.2-54.4-9.2 c26.8,18.4,59.6,29.2,94.4,29.2c92.8,0,168-75.2,168-168C352,110.4,304.4,47.6,238.4,25.2z"/> <g> <path style="fill:#FFFFFF;" d="M184,288c-4.4,0-8-3.6-8-8V139.6c0-4.4,3.6-8,8-8s8,3.6,8,8V280C192,284.4,188.4,288,184,288z"/> <path style="fill:#FFFFFF;" d="M184,111.6c-4.4,0-8-3.6-8-8V92c0-4.4,3.6-8,8-8s8,3.6,8,8v11.6C192,108,188.4,111.6,184,111.6z"/> <path style="fill:#FFFFFF;" d="M184,296c-2,0-4-0.8-5.6-2.4l-70.8-70.8c-3.2-3.2-3.2-8,0-11.2s8-3.2,11.2,0l65.2,65.2l65.2-65.2 c3.2-3.2,8-3.2,11.2,0s3.2,8,0,11.2l-70.8,70.8C188,295.2,186,296,184,296z"/> </g> <path style="fill:#61A1DD;" d="M184,368C82.4,368,0,285.6,0,184S82.4,0,184,0s184,82.4,184,184S285.6,368,184,368z M184,16 C91.2,16,16,91.2,16,184s75.2,168,168,168s168-75.2,168-168S276.8,16,184,16z"/> </g>

</svg>