<svg id="Capa_1" enable-background="new 0 0 512 512" height="512" viewBox="0 0 512 512" width="512" xmlns="http://www.w3.org/2000/svg"><g><g><path d="m301.5 512h-301v-482h391v392c0 49.706-40.294 90-90 90z" fill="#fff5f5"/></g><path d="m196.5 512h105c49.706 0 90-40.294 90-90v-392h-195z" fill="#efe2dd"/><g id="List_2_"><g><path d="m301.5 60h-210v-60h210z" fill="#666680"/></g><g><path d="m61.5 152h30v30h-30z" fill="#6da5f2"/></g><g><path d="m61.5 212h30v30h-30z" fill="#6da5f2"/></g><g><path d="m61.5 272h30v30h-30z" fill="#6da5f2"/></g><g><path d="m61.5 332h30v30h-30z" fill="#6da5f2"/></g><g><path d="m121.5 152h210v30h-210z" fill="#d9e5ff"/></g><g><path d="m121.5 212h210v30h-210z" fill="#d9e5ff"/></g><g><path d="m121.5 272h210v30h-210z" fill="#d9e5ff"/></g><g><path d="m121.5 332h195v30h-195z" fill="#d9e5ff"/></g><g><path d="m61.5 392h30v30h-30z" fill="#6da5f2"/></g><g><path d="m121.5 392h195v30h-195z" fill="#d9e5ff"/></g></g><path d="m196.5 0h105v60h-105z" fill="#474759"/><g fill="#bfd6ff"><path d="m196.5 152h135v30h-135z"/><path d="m196.5 212h135v30h-135z"/><path d="m196.5 272h135v30h-135z"/><path d="m196.5 332h135v30h-135z"/><path d="m196.5 392h135v30h-135z"/></g><g><g><g><g><path d="m511.5 512h-210v-210h60c16.569 0 30 13.431 30 30v30h30v-30c0-16.569 13.431-30 30-30h60z" fill="#ffd580"/></g></g></g></g><path d="m421.5 332v30h-15v150h105v-210h-60c-16.569 0-30 13.431-30 30z" fill="#ffb366"/><g><path d="m451.5 392h-90v-90h90z" fill="#ffe6b3"/></g><path d="m406.5 302h45v90h-45z" fill="#ffd580"/></g></svg>