<svg id="svg5" height="512" viewBox="0 0 180.62201 180.62201" width="512" xmlns="http://www.w3.org/2000/svg" xmlns:svg="http://www.w3.org/2000/svg"><g id="layer1" transform="translate(1308.817 493.43)"><path id="path1768" d="m-1218.2076-463.11843c-15.6356-.0674-31.1324 5.94857-42.7384 17.555-19.1687 19.1694-23.0965 48.96554-9.5421 72.44312 13.5542 23.47759 41.3223 34.97705 67.5075 27.96057 26.1849-7.01648 44.4753-30.85896 44.4753-57.96856a10.911177 10.911508 0 0 0 -10.9109-10.91096 10.911177 10.911508 0 0 0 -10.9115 10.91096c0 17.33785-11.5536 32.40394-28.3001 36.89129-16.7465 4.48737-34.2899-2.7808-42.9586-17.79581-8.6686-15.01503-6.1904-33.8367 6.0689-46.09641 10.6091-10.60926 26.131-13.88682 39.8487-8.96069a16.366989 16.366989 0 0 1 -1.1265-5.96553 16.366989 16.366989 0 0 1 8.755-14.47612c-6.057-2.1956-12.3568-3.37564-18.6547-3.56102-.5046-.0136-1.0082-.0248-1.5126-.0248z" fill="#d7dfff"/><circle id="path17277" cx="-1190.429" cy="-445.055" fill="#4147d5" r="16.367" stroke-linejoin="round" stroke-width="1.5"/></g></svg>