<svg height="512" viewBox="0 0 512 512" width="512" xmlns="http://www.w3.org/2000/svg"><g id="Layer_2" data-name="Layer 2"><g id="lock"><circle id="background" cx="256" cy="256" fill="#f44336" r="256"/><path d="m324.61 239.57v-51.65a66.92 66.92 0 0 0 -66.92-66.92h-3.38a66.92 66.92 0 0 0 -66.92 66.92v51.65a38.28 38.28 0 0 0 -29.79 37.32v75.84a38.27 38.27 0 0 0 38.27 38.27h120.26a38.27 38.27 0 0 0 38.27-38.27v-75.84a38.28 38.28 0 0 0 -29.79-37.32zm-70.3-91.52h3.38a39.92 39.92 0 0 1 39.87 39.87v50.69h-83.12v-50.69a39.92 39.92 0 0 1 39.87-39.87z" fill="#fff"/></g></g></svg>