<svg id="Capa_1" enable-background="new 0 0 512 512" height="512" viewBox="0 0 512 512" width="512" xmlns="http://www.w3.org/2000/svg"><g><g><circle cx="256" cy="256.08" fill="#fff7bf" r="246.252"/><path d="m320.93 256.08 71.581-71.581c17.93-17.93 17.93-47 0-64.929-17.93-17.93-47-17.93-64.93 0l-71.581 71.58-71.581-71.581c-17.93-17.93-47-17.93-64.93 0-17.93 17.93-17.93 47 0 64.929l71.581 71.581-71.581 71.581c-17.93 17.93-17.93 47 0 64.93 17.93 17.93 47 17.93 64.93 0l71.581-71.581 71.581 71.581c17.93 17.93 47 17.93 64.93 0 17.93-17.93 17.93-47 0-64.93z" fill="#e38eba"/></g><g><path d="m399.604 112.476c-21.813-21.811-57.303-21.811-79.116 0l-64.488 64.488-64.488-64.488c-21.813-21.811-57.303-21.811-79.116 0-21.812 21.813-21.812 57.303 0 79.116l64.489 64.488-64.489 64.488c-21.812 21.813-21.812 57.303 0 79.116 21.813 21.811 57.303 21.811 79.116 0l64.488-64.489 64.488 64.488c10.906 10.905 25.232 16.359 39.558 16.359s28.652-5.453 39.558-16.359c21.812-21.813 21.812-57.303 0-79.116l-64.489-64.488 64.489-64.488c21.812-21.812 21.812-57.303 0-79.115zm-14.186 64.93-71.581 71.581c-3.917 3.917-3.917 10.269 0 14.186l71.581 71.581c13.991 13.99 13.991 36.754 0 50.744-13.99 13.99-36.754 13.99-50.744 0l-71.581-71.581c-1.959-1.958-4.526-2.938-7.093-2.938s-5.134.98-7.093 2.938l-71.581 71.581c-13.99 13.99-36.754 13.99-50.744 0-13.991-13.99-13.991-36.754 0-50.744l71.581-71.581c3.917-3.917 3.917-10.269 0-14.186l-71.581-71.581c-13.991-13.99-13.991-36.754 0-50.744 13.99-13.99 36.754-13.99 50.744 0l71.581 71.581c3.917 3.916 10.269 3.916 14.186 0l71.581-71.581c13.99-13.99 36.754-13.99 50.744 0s13.99 36.754 0 50.744z"/><path d="m258.302 20.617c5.522-.082 9.936-4.625 9.858-10.148-.078-5.522-4.618-9.932-10.14-9.85-5.522.082-9.936 4.625-9.858 10.148.078 5.522 4.618 9.932 10.14 9.85z"/><path d="m451.654 90.176c-37.624-44.57-89.835-75.166-147.016-86.154-5.442-1.047-10.699 2.517-11.743 7.958-1.045 5.44 2.517 10.698 7.957 11.743 52.688 10.124 100.799 38.32 135.473 79.393 40.631 48.132 60.075 109.222 54.748 172.016-5.326 62.796-34.787 119.779-82.956 160.451-42.999 36.308-96.3 55.739-151.915 55.737-6.685-.001-13.414-.282-20.151-.848-62.789-5.277-119.744-34.69-160.376-82.821-40.631-48.133-60.075-109.223-54.748-172.017 5.326-62.796 34.787-119.779 82.956-160.452 31.743-26.804 70.005-44.802 110.651-52.052 5.454-.973 9.086-6.182 8.114-11.636-.973-5.455-6.187-9.081-11.636-8.114-44.115 7.868-85.635 27.396-120.071 56.473-52.261 44.129-84.225 105.954-90.004 174.086-5.779 68.136 15.319 134.423 59.409 186.651 44.09 52.229 105.893 84.147 174.025 89.872 7.314.615 14.608.92 21.865.92 60.338 0 118.176-21.081 164.825-60.471 52.26-44.127 84.223-105.952 90.003-174.084 5.778-68.135-15.32-134.423-59.41-186.651z"/></g></g></svg>