<svg id="Capa_1" enable-background="new 0 0 512 512" height="512" viewBox="0 0 512 512" width="512" xmlns="http://www.w3.org/2000/svg"><g><g><path d="m438.443 501.98h-364.886c-35.091 0-63.537-28.447-63.537-63.537v-364.886c0-35.091 28.447-63.537 63.537-63.537h364.887c35.091 0 63.537 28.447 63.537 63.537v364.887c-.001 35.09-28.447 63.536-63.538 63.536z" fill="#e38eba"/><path d="m144.947 172.563v225.516c0 19.738 16.001 35.738 35.739 35.738h150.629c19.738 0 35.738-16.001 35.738-35.738v-225.516z" fill="#ccf5fc"/><path d="m360.32 126.043h-208.64c-15.614 0-28.272 12.658-28.272 28.272 0 15.614 12.658 28.272 28.272 28.272h59.407 89.827 59.407c15.614 0 28.272-12.658 28.272-28.272-.001-15.614-12.658-28.272-28.273-28.272z" fill="#faf7f5"/></g><g><path d="m438.319 0h-364.638c-40.628 0-73.681 33.053-73.681 73.681v364.638c0 40.628 33.053 73.681 73.681 73.681h364.638c40.628 0 73.681-33.053 73.681-73.681v-364.638c0-40.628-33.053-73.681-73.681-73.681zm53.642 438.319c0 29.578-24.064 53.642-53.642 53.642h-364.638c-29.578 0-53.642-24.064-53.642-53.642v-364.638c0-29.578 24.064-53.642 53.642-53.642h364.638c29.578 0 53.642 24.064 53.642 53.642z"/><circle cx="256" cy="182.582" r="10"/><path d="m360.32 116.023h-57.388c.006-.304.017-.607.017-.911 0-25.887-21.061-46.949-46.949-46.949s-46.949 21.062-46.949 46.949c0 .304.011.607.017.911h-57.388c-21.114 0-38.292 17.177-38.292 38.292 0 15.11 8.799 28.2 21.54 34.425v209.339c0 25.231 20.527 45.757 45.758 45.757h150.629c25.231 0 45.758-20.526 45.758-45.757v-209.339c12.741-6.225 21.54-19.315 21.54-34.425-.001-21.114-17.179-38.292-38.293-38.292zm-131.23-.91c0-14.839 12.072-26.91 26.91-26.91s26.91 12.071 26.91 26.91c0 .305-.024.607-.034.911h-53.753c-.009-.304-.033-.606-.033-.911zm131.23 57.455h-59.407c-5.534 0-10.02 4.486-10.02 10.02s4.486 10.02 10.02 10.02h56.12v205.473c0 14.181-11.537 25.718-25.719 25.718h-150.629c-14.182 0-25.719-11.537-25.719-25.718v-205.474h56.12c5.534 0 10.02-4.486 10.02-10.02s-4.486-10.02-10.02-10.02h-59.406c-10.065 0-18.252-8.188-18.252-18.252 0-10.065 8.188-18.252 18.252-18.252h68.874c.102.002.203.002.305 0h70.221c.07.001.139.008.209.008.065 0 .13-.007.195-.008h68.837c10.065 0 18.252 8.188 18.252 18.252 0 10.065-8.188 18.253-18.253 18.253z"/><path d="m198.421 235.58c-5.534 0-10.02 4.486-10.02 10.02v136.987c0 5.533 4.486 10.02 10.02 10.02s10.02-4.486 10.02-10.02v-136.987c0-5.533-4.486-10.02-10.02-10.02z"/><path d="m256 235.58c-5.534 0-10.02 4.486-10.02 10.02v136.987c0 5.533 4.486 10.02 10.02 10.02s10.02-4.486 10.02-10.02v-136.987c0-5.533-4.486-10.02-10.02-10.02z"/><path d="m313.579 392.607c5.534 0 10.02-4.486 10.02-10.02v-136.987c0-5.533-4.486-10.02-10.02-10.02s-10.02 4.486-10.02 10.02v136.987c0 5.533 4.486 10.02 10.02 10.02z"/></g></g></svg>