<svg height="512" viewBox="0 0 512 512" width="512" xmlns="http://www.w3.org/2000/svg">
  <circle cx="256" cy="257.313" fill="#fff7bf" r="246.253"/>
  <path d="M409.369 148.055c-17.93-17.93-47-17.93-64.93 0L221.897 270.598l-54.336-54.336c-17.93-17.93-47-17.93-64.93 0s-17.93 47 0 64.93l85.391 85.392c9.324 9.324 21.66 13.787 33.875 13.414 12.215.372 24.55-4.091 33.873-13.414l153.599-153.599c17.93-17.93 17.93-47 0-64.93" fill="#7ddac2"/>
  <path d="M253.698 491.383c-5.522.082-9.936 4.626-9.858 10.148s4.618 9.932 10.14 9.85 9.936-4.626 9.858-10.148-4.618-9.932-10.14-9.85"/>
  <path d="M451.655 91.409C407.565 39.18 345.762 7.263 277.63 1.537 209.505-4.186 143.2 16.96 90.94 61.087 38.68 105.215 6.716 167.04.937 235.172c-5.779 68.136 15.319 134.424 59.409 186.652 37.624 44.57 89.835 75.166 147.016 86.154 5.441 1.042 10.698-2.517 11.743-7.958 1.045-5.44-2.517-10.698-7.957-11.743-52.688-10.124-100.799-38.32-135.473-79.393C35.044 360.751 15.6 299.661 20.927 236.868c5.326-62.796 34.787-119.779 82.956-160.452 48.168-40.672 109.27-60.168 172.067-54.887 62.789 5.277 119.744 34.69 160.375 82.822s60.075 109.223 54.749 172.016c-5.327 62.796-34.788 119.779-82.957 160.451-31.743 26.805-70.005 44.804-110.651 52.052-5.312.948-8.982 6.116-8.145 11.442.861 5.477 6.213 9.277 11.667 8.308 44.115-7.867 85.636-27.395 120.071-56.473 52.26-44.127 84.223-105.952 90.003-174.084 5.78-68.138-15.317-134.426-59.407-186.654"/>
  <path d="M416.462 220.077c21.812-21.812 21.812-57.303 0-79.115-21.812-21.81-57.302-21.812-79.116 0l-115.45 115.45-47.243-47.243c-21.811-21.812-57.303-21.812-79.115 0-10.566 10.566-16.386 24.615-16.386 39.557s5.82 28.992 16.386 39.558l85.391 85.392c11.03 11.029 25.962 17.355 40.968 17.355 15.225 0 29.773-6.163 40.965-17.355zM221.898 370.97c-9.726 0-19.487-4.184-26.782-11.479l-85.392-85.392c-6.777-6.777-10.51-15.788-10.51-25.372s3.733-18.595 10.51-25.371c6.996-6.995 16.184-10.493 25.372-10.493 9.189 0 18.377 3.498 25.372 10.493l54.336 54.336c3.916 3.916 10.268 3.916 14.185 0l122.543-122.543c13.991-13.991 36.755-13.989 50.744 0 13.99 13.99 13.99 36.753 0 50.743L248.678 359.49c-7.403 7.403-16.913 11.48-26.78 11.48"/>
</svg>
