<svg id="Capa_1" enable-background="new 0 0 511 511" height="512" viewBox="0 0 511 511" width="512" xmlns="http://www.w3.org/2000/svg">
  <g>
    <g>
      <circle cx="255.5" cy="255.5" fill="#ccf5fc" r="245.5"/>
      <g fill="#faf7f5">
        <path d="m180 178.409c42.094-40.38 108.501-39.785 149.869.768-9.456 9.071-5.547 24.978 7.038 28.632l54.569 15.844c11.606 3.37 22.508-7.088 19.623-18.824l-14.178-57.679c-2.855-11.615-17.213-15.783-25.844-7.504l-1.405 1.347c-32.209-32.243-74.743-48.21-117.176-47.685-10.296-.68-26.616-.513-45.496 5.192-18.443 5.573-31.891 14.182-40.05 20.334-6.888 4.412-15.793 10.843-25.117 19.788-18.301 17.556-31.613 38.365-39.894 60.645-5.585 15.027 2.75 31.638 18.146 36.109l.011.003c13.966 4.056 28.515-3.498 33.616-17.117 5.484-14.643 14.256-28.311 26.288-39.853z"/>
        <path d="m332.08 328.588c-41.626 42.461-109.807 43.138-152.268 1.512-.808-.792-1.593-1.592-2.37-2.4l5.904-6.022c7.277-7.423 3.79-19.941-6.278-22.532l-60.468-15.562c-11.91-3.065-22.672 7.913-19.371 19.76l16.41 58.894c2.945 10.571 16.23 13.989 23.912 6.153l1.279-1.305c.785.8 1.585 1.6 2.385 2.384 64.214 62.951 167.285 61.927 230.235-2.286 17.262-17.608 29.715-38.144 37.369-59.973 5.277-15.047-3.417-31.393-18.859-35.369l-.767-.198c-13.758-3.542-27.764 4.165-32.501 17.558-5.07 14.335-13.271 27.818-24.612 39.386z"/>
      </g>
    </g>
    <g>
      <circle cx="208.086" cy="100.167" r="10"/>
      <path d="m436.166 74.834c-48.258-48.257-112.419-74.834-180.666-74.834s-132.408 26.577-180.666 74.834c-48.257 48.258-74.834 112.419-74.834 180.666s26.577 132.408 74.834 180.666c48.258 48.257 112.419 74.834 180.666 74.834s132.408-26.577 180.666-74.834c48.257-48.258 74.834-112.419 74.834-180.666s-26.577-132.408-74.834-180.666zm-14.143 347.189c-44.48 44.481-103.619 68.977-166.523 68.977s-122.043-24.496-166.523-68.977c-44.481-44.48-68.977-103.619-68.977-166.523s24.496-122.043 68.977-166.523c44.48-44.481 103.619-68.977 166.523-68.977s122.043 24.496 166.523 68.977c44.481 44.48 68.977 103.619 68.977 166.523s-24.496 122.043-68.977 166.523z"/>
      <path d="m407.096 146.653c-3.831-15.587-21.234-24.548-36.154-18.281-32.449-29.665-74.252-45.612-118.57-45.062-5.522.068-9.944 4.601-9.875 10.123.067 5.48 4.531 9.876 9.997 9.876.042 0 .084 0 .126-.001 41.543-.49 80.634 15.379 109.978 44.753 1.93 1.932 4.617 3.004 7.348 2.93 1.337-.036 2.662-.343 3.879-.899 1.377-.629 2.331-1.646 3.531-2.519 3.768-2.744 9.226-.595 10.32 3.854l13.316 54.17c.829 3.371-1.023 5.596-1.857 6.397-.835.8-3.136 2.557-6.468 1.59l-53.571-15.555c-4.348-1.262-6.262-6.657-3.527-10.328.716-.961 1.691-1.679 2.398-2.655.912-1.257 1.52-2.724 1.771-4.256.521-3.183-.561-6.497-2.866-8.756-21.9-21.469-50.879-33.399-81.6-33.592-30.764-.186-59.975 11.437-82.192 32.75-12.856 12.333-22.523 26.989-28.73 43.562-3.315 8.85-12.506 13.585-21.399 11.039-.024-.007-.049-.015-.074-.022-4.739-1.376-8.57-4.562-10.788-8.97-2.224-4.419-2.498-9.41-.773-14.051 8.046-21.648 20.643-40.796 37.443-56.912 7.256-6.961 15.191-13.212 23.583-18.58 4.653-2.976 6.012-9.16 3.036-13.812s-9.16-6.01-13.812-3.036c-9.489 6.069-18.456 13.133-26.652 20.996-18.993 18.22-33.24 39.879-42.344 64.377-3.63 9.767-3.027 20.705 1.654 30.009 4.662 9.266 13.038 16.245 22.989 19.161.032.01.065.02.098.029 3.41.991 6.864 1.463 10.276 1.463 15.349 0 29.835-9.572 35.493-24.675 5.147-13.742 13.17-25.902 23.847-36.144 18.44-17.69 42.712-27.352 68.221-27.183 22.669.143 44.193 7.982 61.46 22.236-6.627 14.611 1.632 32.121 16.913 36.558l53.571 15.555c9.255 2.689 18.935.309 25.89-6.364 6.956-6.672 9.735-16.244 7.434-25.604z"/>
      <path d="m392.45 262.158-.764-.196c-18.792-4.838-37.888 5.44-44.422 23.907-4.753 13.439-12.265 25.456-22.326 35.719-18.262 18.629-42.689 29.031-68.779 29.29-24.049.232-46.802-8.147-64.803-23.73 4.873-7.307 5.473-16.778 1.784-24.721-3.17-6.827-9.331-11.871-16.61-13.744l-58.555-15.069c-8.862-2.281-17.976.259-24.382 6.793-6.405 6.534-8.764 15.698-6.307 24.512l16.229 58.244c4 14.355 20.169 22.403 34.041 16.64 33.111 30.788 75.374 46.139 117.617 46.136 44.825-.003 89.633-17.291 123.418-51.753 17.913-18.272 31.258-39.692 39.665-63.664 3.444-9.822 2.609-20.716-2.292-29.889-4.891-9.154-13.46-15.887-23.514-18.475zm6.933 41.744c-7.428 21.184-19.229 40.119-35.074 56.282-28.576 29.149-66.79 45.425-107.603 45.831-40.79.411-79.342-15.109-108.493-43.687-2.238-2.193-4.193-4.387-7.4-5.041-2.834-.578-5.848.132-8.129 1.91-1.89 1.473-3.341 2.934-5.939 2.355-1.917-.427-3.436-1.862-3.964-3.758l-16.229-58.244c-.743-2.666.678-4.484 1.324-5.143.645-.658 2.433-2.117 5.115-1.425l58.555 15.069c2.661.685 4.367 3.343 3.925 6.046-.381 2.33-2.668 4.05-4.235 5.649-2.033 2.074-3.587 4.319-3.775 7.328-.276 4.42 2.402 7.28 5.35 10.168 22.868 22.418 52.623 33.591 82.367 33.589 30.524-.002 61.037-11.774 84.043-35.242 12.116-12.359 21.166-26.843 26.899-43.05 3.051-8.626 11.9-13.445 20.58-11.209.001 0 .003.001.004.001l.764.196c4.709 1.212 8.564 4.242 10.856 8.531 2.303 4.309 2.679 9.226 1.059 13.844z"/>
    </g>
  </g>
</svg>
