<svg id="Capa_1" enable-background="new 0 0 512 512" height="512" viewBox="0 0 512 512" width="512" xmlns="http://www.w3.org/2000/svg"><g><g><path d="m438.443 501.73h-364.886c-35.091 0-63.537-28.447-63.537-63.537v-364.887c0-35.091 28.447-63.537 63.537-63.537h364.887c35.091 0 63.537 28.447 63.537 63.537v364.887c-.001 35.09-28.447 63.537-63.538 63.537z" fill="#fff2a0"/><path d="m402.941 228.353 17.764-7.101c14.911-5.96 22.168-22.878 16.211-37.791v-.001c-5.959-14.917-22.884-22.178-37.8-16.215l-17.751 7.096c-10.904-16.834-24.867-30.943-40.846-41.861l7.546-17.591c6.331-14.758-.499-31.854-15.256-38.188-14.76-6.335-31.862.497-38.194 15.258l-7.542 17.582c-18.922-4.031-38.772-4.437-58.478-.74l-7.099-17.758c-5.961-14.913-22.883-22.17-37.797-16.209l-.006.002c-14.913 5.961-22.17 22.884-16.209 37.797l7.098 17.758c-16.82 10.889-30.928 24.867-41.861 40.831l-17.582-7.543c-14.761-6.333-31.861.502-38.192 15.264l-.003.007c-6.329 14.759.504 31.854 15.262 38.186l17.591 7.546c-4.045 18.922-4.437 38.772-.74 58.463l-17.764 7.101c-14.911 5.96-22.168 22.878-16.211 37.79v.001c5.959 14.917 22.884 22.178 37.799 16.215l17.752-7.096c10.904 16.834 24.867 30.942 40.846 41.861l-7.546 17.591c-6.331 14.758.499 31.854 15.256 38.188 14.76 6.335 31.862-.497 38.194-15.258l7.542-17.582c18.922 4.031 38.773 4.437 58.478.74l7.099 17.758c5.961 14.913 22.884 22.17 37.797 16.209l.006-.002c14.913-5.961 22.17-22.884 16.209-37.797l-7.099-17.758c16.82-10.889 30.928-24.867 41.861-40.831l17.582 7.543c14.761 6.333 31.861-.502 38.192-15.264l.003-.007c6.329-14.759-.504-31.854-15.262-38.186l-17.591-7.546c4.047-18.921 4.438-38.772.741-58.462zm-123.219 89.318c-34.205 13.108-72.557-4.002-85.65-38.207s4.016-72.542 38.207-85.636c34.205-13.108 72.557 4.002 85.65 38.207 13.093 34.206-4.017 72.543-38.207 85.636z" fill="#ccf5fc"/></g><g><path d="m438.319 0h-364.638c-40.628 0-73.681 33.812-73.681 75.372v361.256c0 41.56 33.053 75.372 73.681 75.372h137.406c5.533 0 10.02-4.486 10.02-10.02s-4.486-10.02-10.02-10.02h-137.406c-29.578 0-53.642-24.822-53.642-55.333v-361.255c0-30.511 24.064-55.333 53.642-55.333h364.638c29.578 0 53.642 24.822 53.642 55.333v361.256c0 30.511-24.064 55.333-53.642 55.333h-137.406c-5.533 0-10.02 4.486-10.02 10.02s4.487 10.019 10.02 10.019h137.406c40.628 0 73.681-33.812 73.681-75.372v-361.256c0-41.56-33.053-75.372-73.681-75.372z"/><circle cx="256" cy="501.98" r="10"/><g><path d="m287.281 185.644c-18.725-8.354-39.584-8.918-58.734-1.585-19.149 7.333-34.297 21.685-42.652 40.411-8.356 18.726-8.919 39.585-1.586 58.734s21.685 34.297 40.41 42.652c10.004 4.464 20.616 6.704 31.252 6.704 9.272 0 18.563-1.703 27.482-5.118 19.149-7.333 34.297-21.685 42.652-40.411 8.356-18.726 8.919-39.585 1.586-58.734s-21.684-34.297-40.41-42.653zm20.561 93.237c-6.179 13.847-17.38 24.46-31.541 29.882-14.159 5.423-29.583 5.007-43.433-1.172-13.848-6.179-24.46-17.38-29.882-31.541-5.423-14.161-5.007-29.585 1.172-43.433 6.179-13.847 17.38-24.46 31.541-29.882 6.597-2.526 13.465-3.785 20.323-3.785 7.863 0 15.712 1.657 23.109 4.957 13.848 6.179 24.46 17.38 29.882 31.541 5.424 14.161 5.008 29.586-1.171 43.433z"/><path d="m423.729 285.173-10.225-4.386c2.458-15.322 2.654-30.773.586-46.125l10.323-4.125c20.011-7.997 29.785-30.783 21.789-50.794 0 0 0 0 0-.001-7.998-20.011-30.786-29.785-50.795-21.789l-10.323 4.125c-9.081-12.549-19.874-23.612-32.213-33.018l4.387-10.226c8.494-19.805-.707-42.829-20.511-51.324s-42.829.706-51.325 20.511l-4.386 10.225c-15.319-2.458-30.772-2.655-46.125-.586l-4.125-10.323c-3.874-9.694-11.291-17.299-20.885-21.414s-20.216-4.248-29.91-.375c-9.693 3.874-17.299 11.291-21.414 20.885s-4.248 20.216-.374 29.91l4.125 10.323c-12.549 9.082-23.612 19.875-33.018 32.213l-10.225-4.386c-19.808-8.497-42.829.706-51.325 20.51-4.115 9.594-4.248 20.216-.374 29.91s11.291 17.299 20.885 21.414l10.225 4.386c-2.457 15.319-2.653 30.773-.586 46.125l-10.323 4.125c-20.011 7.997-29.785 30.783-21.789 50.795 7.998 20.011 30.785 29.783 50.795 21.789l10.323-4.125c9.081 12.549 19.874 23.612 32.213 33.018l-4.387 10.225c-8.494 19.805.707 42.829 20.511 51.325 19.803 8.495 42.829-.706 51.325-20.511l4.386-10.225c15.319 2.458 30.773 2.655 46.125.586l4.125 10.323c3.874 9.694 11.291 17.299 20.885 21.414 4.95 2.123 10.172 3.187 15.4 3.186 4.905 0 9.817-.937 14.51-2.812 9.693-3.874 17.299-11.291 21.414-20.885s4.248-20.216.374-29.91l-4.125-10.323c12.549-9.082 23.612-19.875 33.018-32.213l10.225 4.386c9.596 4.116 20.218 4.249 29.91.375 9.694-3.874 17.299-11.291 21.415-20.885 4.115-9.594 4.248-20.216.374-29.91-3.875-9.693-11.292-17.298-20.885-21.413zm2.129 43.439c-2.009 4.685-5.723 8.306-10.456 10.197-4.732 1.892-9.92 1.827-14.604-.183l-17.58-7.541c-4.391-1.883-9.498-.399-12.195 3.542-10.436 15.251-23.572 28.067-39.045 38.092-4.009 2.598-5.621 7.667-3.849 12.103l7.095 17.755c1.892 4.733 1.827 9.919-.183 14.604-2.009 4.684-5.722 8.306-10.455 10.197-4.732 1.893-9.921 1.827-14.604-.183-4.685-2.009-8.306-5.723-10.197-10.456l-7.096-17.755c-1.751-4.381-6.491-6.988-11.13-6.118-18.119 3.398-36.471 3.166-54.544-.692-4.675-.995-9.395 1.449-11.278 5.838l-7.541 17.58c-4.148 9.67-15.393 14.16-25.06 10.015-9.67-4.148-14.162-15.391-10.015-25.06l7.542-17.58c1.883-4.389.398-9.498-3.543-12.195-15.252-10.436-28.067-23.573-38.092-39.045-2.598-4.009-7.666-5.621-12.104-3.849l-17.756 7.095c-9.771 3.905-20.896-.868-24.801-10.638-3.904-9.771.868-20.897 10.639-24.801l17.756-7.095c4.436-1.772 6.998-6.435 6.117-11.13-3.398-18.12-3.166-36.471.691-54.544.997-4.67-1.447-9.395-5.837-11.277l-17.58-7.542c-4.685-2.009-8.307-5.723-10.198-10.456s-1.826-9.919.184-14.604c4.147-9.669 15.39-14.162 25.06-10.015l17.58 7.541c4.393 1.884 9.499.4 12.195-3.542 10.436-15.251 23.572-28.067 39.045-38.092 4.009-2.598 5.621-7.667 3.849-12.103l-7.095-17.755c-1.892-4.733-1.827-9.919.183-14.604 2.009-4.684 5.722-8.306 10.455-10.197 4.732-1.892 9.92-1.827 14.604.183 4.685 2.009 8.306 5.723 10.197 10.456l7.096 17.755c1.773 4.437 6.436 7.001 11.13 6.118 18.118-3.399 36.469-3.166 54.544.692 4.676.997 9.396-1.449 11.278-5.838l7.541-17.58c4.148-9.67 15.391-14.162 25.06-10.015 9.67 4.148 14.162 15.39 10.015 25.06l-7.542 17.581c-1.883 4.389-.398 9.498 3.543 12.195 15.252 10.436 28.067 23.573 38.092 39.045 2.599 4.01 7.669 5.622 12.104 3.849l17.756-7.095c9.77-3.905 20.896.868 24.801 10.638 3.904 9.771-.868 20.897-10.639 24.801l-17.756 7.095c-4.436 1.773-6.999 6.435-6.117 11.13 3.399 18.117 3.167 36.468-.691 54.544-.997 4.67 1.447 9.395 5.837 11.277l17.581 7.542c4.684 2.009 8.306 5.722 10.197 10.456 1.892 4.734 1.826 9.92-.184 14.604z"/></g></g></g></svg>