<svg id="Capa_1" enable-background="new 0 0 512 512" height="512" viewBox="0 0 512 512" width="512" xmlns="http://www.w3.org/2000/svg">
  <g>
    <g>
      <circle cx="256" cy="256" fill="#fff2a0" r="245.98"/>
      <g fill="#0077b6">
        <path d="m158.935 195.222v114.348c0 20.883 16.929 37.811 37.811 37.811h.001 118.506c20.883 0 37.811-16.929 37.811-37.811v-114.348h36.591c13.96 0 20.23-17.496 9.448-26.363l-108.072-88.873c-20.355-16.739-49.708-16.739-70.063 0l-108.072 88.873c-10.783 8.867-4.513 26.363 9.448 26.363z"/>
        <path d="m329.686 387.791h-147.372c-12.912 0-23.379 10.467-23.379 23.379 0 12.912 10.467 23.379 23.379 23.379h28.773 89.827 28.773c12.912 0 23.379-10.467 23.379-23.379-.001-12.912-10.468-23.379-23.38-23.379z"/>
      </g>
    </g>
    <g>
      <circle cx="256" cy="434.549" r="10"/>
      <path d="m256 512c-68.38 0-132.667-26.629-181.02-74.98-48.351-48.353-74.98-112.64-74.98-181.02s26.629-132.667 74.98-181.02c48.353-48.351 112.64-74.98 181.02-74.98s132.667 26.629 181.02 74.98c48.351 48.353 74.98 112.64 74.98 181.02s-26.629 132.667-74.98 181.02c-48.353 48.351-112.64 74.98-181.02 74.98zm0-491.961c-63.027 0-122.282 24.544-166.849 69.112-44.568 44.566-69.112 103.822-69.112 166.849s24.544 122.283 69.112 166.849c44.567 44.568 103.822 69.112 166.849 69.112s122.282-24.544 166.849-69.112c44.568-44.567 69.112-103.822 69.112-166.849s-24.544-122.283-69.112-166.849c-44.567-44.568-103.822-69.112-166.849-69.112z"/>
      <path d="m315.253 357.401h-118.506c-26.374 0-47.832-21.457-47.832-47.832v-104.327h-26.571c-10.645 0-19.843-6.476-23.435-16.496-3.591-10.021-.599-20.864 7.623-27.625l108.072-88.874c23.986-19.726 58.804-19.726 82.791 0l108.072 88.874c8.222 6.761 11.214 17.605 7.623 27.625-3.591 10.021-12.79 16.496-23.435 16.496h-26.571v104.328c0 26.374-21.457 47.831-47.831 47.831zm-59.253-279.922c-10.181 0-20.362 3.415-28.667 10.245l-108.072 88.874c-2.382 1.959-1.833 4.421-1.487 5.387.347.968 1.486 3.217 4.57 3.217h36.591c5.534 0 10.02 4.486 10.02 10.02v114.347c0 15.325 12.467 27.793 27.792 27.793h118.506c15.324 0 27.792-12.468 27.792-27.793v-114.347c0-5.533 4.486-10.02 10.02-10.02h36.591c3.085 0 4.224-2.25 4.57-3.217s.895-3.429-1.487-5.387l-108.072-88.874c-8.305-6.83-18.486-10.245-28.667-10.245z"/>
      <path d="m329.686 444.568h-28.773c-5.534 0-10.02-4.486-10.02-10.02s4.486-10.02 10.02-10.02h28.773c7.366 0 13.36-5.993 13.36-13.359 0-7.367-5.993-13.36-13.36-13.36h-147.372c-7.366 0-13.36 5.993-13.36 13.36 0 7.366 5.993 13.359 13.36 13.359h28.773c5.534 0 10.02 4.486 10.02 10.02s-4.486 10.02-10.02 10.02h-28.773c-18.416 0-33.399-14.982-33.399-33.398 0-18.417 14.982-33.399 33.399-33.399h147.372c18.416 0 33.399 14.982 33.399 33.399 0 18.416-14.983 33.398-33.399 33.398z"/>
    </g>
  </g>
</svg>
