<svg id="Capa_1" enable-background="new 0 0 512 512" height="512" viewBox="0 0 512 512" width="512" xmlns="http://www.w3.org/2000/svg"><g><path d="m136 0-87.9 132.001h57.9v109.999h60v-109.999h57.9z" fill="#c6f243"/><g><path d="m496 422v60h-30v30h-60v-30h-120v30h-60v-30h-120v30h-60v-30h-30v-60l240-30z" fill="#666680"/></g><path d="m286 512v-30h120v30h60v-30h30v-60l-240-30v120z" fill="#474759"/><path d="m496 152v135l-60 30-60-30-30-67.5 30-67.5h45l15 30 15-30z" fill="#ffd580"/><path d="m496 287v135h-120l-30-67.5 30-67.5h45l15 30 15-30z" fill="#ffb366"/><path d="m256 287 30 67.5-30 67.5h-120l-30-67.5 30-67.5h45l15 30 15-30z" fill="#ffe6b3"/><path d="m376 152v135l-60 30-60-30v-135h45l15 30 15-30z" fill="#ffb366"/><g><path d="m301 152h30v60h-30z" fill="#ffd580"/></g><g><path d="m421 152h30v60h-30z" fill="#ffe6b3"/></g><path d="m376 287v135h-120v-135h45l15 30 15-30z" fill="#ffd580"/><g><path d="m301 287h30v60h-30z" fill="#ffe6b3"/></g><path d="m136 287v135h-120v-135h45l15 30 15-30z" fill="#ffd580"/><g><path d="m61 287h30v60h-30z" fill="#ffe6b3"/></g><g><path d="m181 287h30v60h-30z" fill="#ffd580"/></g><g><g><g><path d="m421 287h30v60h-30z" fill="#ffd580"/></g></g></g></g></svg>